<svg height="64" viewBox="0 0 481 120" xmlns="http://www.w3.org/2000/svg" xmlns:xlink="http://www.w3.org/1999/xlink"><defs><path id="a" d="M0 .15h479.13V120H0V.15z"/></defs><g transform="translate(1)" fill="none" fill-rule="evenodd"><path d="M174.364 51.487c2.213 0 4.02-1.22 4.02-2.936V37.8c0-1.76-1.807-3.16-4.02-3.16h-4.11v16.847h4.11zm-12.24 7.588V27.097h11.97c6.413 0 12.42 3.252 12.42 10.704v10.75c0 7.363-6.007 10.525-12.42 10.525h-11.97zM212.752 34.685h-14.09v4.788h12.962v7.181H198.66v4.788h14.093v7.633h-22.267V27.052h22.267v7.633zM237.908 50.268l1.355-7.542 5.06-15.673h8.67L241.477 59.03h-7.407L222.55 27.054h8.67l5.015 15.627 1.31 7.588h.36zM260.715 48.777c-.045 4.652 10.344 4.652 10.344 0V37.395c-.047-4.878-10.345-4.742-10.345 0v11.382zm5.15-22.357c6.64 0 13.278 3.658 13.278 10.975v11.382c0 7.317-6.594 10.976-13.234 10.976s-13.28-3.66-13.28-10.976V37.395c0-7.362 6.595-10.975 13.234-10.975zM291.517 48.777c-.045 4.652 10.344 4.652 10.344 0V37.395c-.044-4.878-10.343-4.742-10.343 0v11.382zm5.15-22.357c6.64 0 13.278 3.658 13.278 10.975v11.382c0 7.317-6.594 10.976-13.233 10.976-6.64 0-13.28-3.66-13.28-10.976V37.395c0-7.362 6.595-10.975 13.235-10.975zM326.927 41.957c5.104 0 5.104-7.316 0-7.316h-4.742v7.317h4.742zm14.678 17.118h-10.07l-7.905-10.162h-1.445v10.162h-8.176V27.098h12.78c6.596 0 11.7 3.026 11.88 10.523 0 5.918-2.393 9.26-6.278 10.48l9.213 10.975zM359.58 47.016h-9.214v12.06h-8.13V27.098h8.13v12.105h9.215V27.098h8.13v31.978h-8.13v-12.06zM380.265 48.777c-.045 4.652 10.344 4.652 10.344 0V37.395c-.048-4.878-10.345-4.742-10.345 0v11.382zm5.148-22.357c6.64 0 13.28 3.658 13.28 10.975v11.382c0 7.317-6.594 10.976-13.235 10.976-6.638 0-13.277-3.66-13.277-10.976V37.395c0-7.362 6.595-10.975 13.233-10.975zM424.798 34.685h-14.092v4.788h12.96v7.181h-12.96v4.788h14.092v7.633H402.53V27.052h22.268v7.633zM440.74 51.487c2.212 0 4.02-1.22 4.02-2.936V37.8c0-1.76-1.808-3.16-4.02-3.16h-4.112v16.847h4.11zm-12.24 7.588V27.097h11.968c6.414 0 12.42 3.252 12.42 10.704v10.75c0 7.363-6.006 10.525-12.42 10.525h-11.97zM479.13 34.685h-14.092v4.788h12.96v7.181h-12.96v4.788h14.092v7.633h-22.268V27.052h22.268v7.633z" fill="#1F323C"/><path d="M167.17 84.423c-1.87 0-2.936.91-2.936 2.467v2.493h2.753v2.078h-2.753v9.454h-2.077V86.89c0-2.987 2.207-4.467 5.012-4.493v2.026zM175.352 87.436v2.128c-.96-.154-1.195-.258-2.052-.05-1.065.285-2.078 1.064-2.078 2.31v9.09h-2.077v-9.09c0-2.415 1.714-3.948 3.844-4.362.725-.183 1.583-.183 2.362-.026M179.12 91.617v5.064c0 1.69 1.635 2.442 3.142 2.442 1.454 0 3.09-.753 3.09-2.44v-5.065c0-1.688-1.636-2.416-3.09-2.416-1.507 0-3.143.73-3.143 2.417m3.142-4.493c2.57.026 5.168 1.506 5.168 4.493v5.064c0 3.014-2.598 4.47-5.168 4.494-2.598-.025-5.22-1.48-5.22-4.493v-5.063c0-2.987 2.622-4.467 5.22-4.493M190.366 88.578c1.714-.597 3.558-1.117 5.246-1.117 2.545.053 5.064 1.43 5.064 4.416v9.038h-2.052v-9.038c0-1.636-1.558-2.415-3.012-2.415-1.195 0-2.416.313-3.17.598v10.856h-2.076V88.578zM209.3 100.914c-3.143.416-5.506-1.35-5.506-4.363V82.5h2.052v4.96h2.753v2.08h-2.754v7.01c0 1.533 1.298 2.987 3.454 2.572v1.792z" fill="#7A8387"/><mask id="b" fill="#fff"><use xlink:href="#a"/></mask><path d="M210.366 92.11h6.778v2.13h-6.778v-2.13zM224.625 89.253c-1.585 0-3.143.78-3.118 2.415v1.87h6.285v-1.922c0-1.584-1.636-2.363-3.167-2.363zm-3.118 7.505c-.025 1.637 1.532 2.415 3.118 2.415 1.22 0 2.518-.597 3.064-1.843l1.87.935c-.936 1.973-2.99 2.96-4.935 2.96-2.6 0-5.22-1.48-5.22-4.467v-5.09c0-3.012 2.62-4.467 5.22-4.467 2.544 0 5.142 1.456 5.142 4.468v3.61h-8.26v1.48zM232.704 88.578c1.714-.597 3.558-1.117 5.246-1.117 2.545.053 5.064 1.43 5.064 4.416v9.038h-2.052v-9.038c0-1.636-1.558-2.415-3.012-2.415-1.195 0-2.416.313-3.17.598v10.856h-2.076V88.578zM254.546 98.992V89.93c-1.014-.39-2.13-.625-3.143-.625-1.558.026-3.117.805-3.09 2.416v5.09c-.027 1.585 1.505 2.572 3.038 2.572 1.04 0 2.182-.078 3.196-.39zm2.077 1.272c-1.765.598-3.557.96-5.272.96-2.57-.05-5.14-1.478-5.14-4.465v-5.04c0-2.908 2.596-4.493 5.193-4.493 1.143 0 2.182.104 3.143.83v-5.322h2.077v17.53zM274.625 98.992V89.93c-1.014-.39-2.13-.625-3.144-.625-1.557.026-3.115.805-3.09 2.416l.002 5.09c-.027 1.585 1.505 2.572 3.038 2.572 1.038 0 2.18-.078 3.195-.39zm2.077 1.272c-1.765.598-3.558.96-5.272.96-2.572-.05-5.142-1.478-5.142-4.465v-5.04c0-2.908 2.596-4.493 5.193-4.493 1.144 0 2.183.104 3.144.83v-5.322h2.077l.002 17.53zM284.78 89.253c-1.584 0-3.142.78-3.117 2.415v1.87h6.285v-1.922c0-1.584-1.635-2.363-3.168-2.363zm-3.117 7.505c-.025 1.637 1.533 2.415 3.117 2.415 1.22 0 2.52-.597 3.064-1.843l1.87.935c-.934 1.973-2.987 2.96-4.934 2.96-2.597 0-5.22-1.48-5.22-4.467v-5.09c0-3.012 2.623-4.467 5.22-4.467 2.545 0 5.143 1.456 5.143 4.468v3.61h-8.26v1.48zM297.196 99.044h.154l.547-2.675 3.115-8.91h2.21l-4.755 13.454H296l-4.75-13.453h2.206l3.142 8.935.598 2.65zM309.872 89.253c-1.586 0-3.143.78-3.117 2.415v1.87h6.285v-1.922c0-1.584-1.637-2.363-3.168-2.363zm-3.117 7.505c-.026 1.637 1.53 2.415 3.117 2.415 1.22 0 2.518-.597 3.064-1.843l1.87.935c-.936 1.973-2.987 2.96-4.934 2.96-2.598 0-5.22-1.48-5.22-4.467v-5.09c0-3.012 2.622-4.467 5.22-4.467 2.545 0 5.14 1.456 5.14 4.468v3.61h-8.257v1.48zM322.495 101.018c-2.936 0-4.572-1.636-4.572-4.39V82.762H320v13.87c0 1.48.78 2.31 2.495 2.31v2.078zM326.392 91.617v5.064c0 1.69 1.635 2.442 3.143 2.442 1.453 0 3.09-.753 3.09-2.44v-5.065c0-1.688-1.637-2.416-3.09-2.416-1.508 0-3.143.73-3.143 2.417m3.143-4.493c2.57.026 5.168 1.506 5.168 4.493v5.064c0 3.014-2.598 4.47-5.168 4.494-2.598-.025-5.22-1.48-5.22-4.493v-5.063c0-2.987 2.622-4.467 5.22-4.493M339.716 98.5c.986.362 2.078.596 3.143.596 1.557-.026 3.114-.83 3.088-2.44v-5.013c.026-1.56-1.505-2.442-3.04-2.442-1.063 0-2.206.028-3.192.313V98.5zm-2.078-10.312c1.766-.57 3.558-.96 5.27-.96 2.574.025 5.144 1.454 5.144 4.466v4.96c0 2.936-2.598 4.52-5.22 4.494-1.09 0-2.155-.104-3.116-.728v5.195h-2.078V88.188zM355.897 89.253c-1.585 0-3.142.78-3.116 2.415v1.87h6.286v-1.922c0-1.584-1.637-2.363-3.168-2.363zm-3.116 7.505c-.025 1.637 1.532 2.415 3.118 2.415 1.22 0 2.517-.597 3.063-1.843l1.872.935c-.936 1.973-2.988 2.96-4.935 2.96-2.597 0-5.22-1.48-5.22-4.467v-5.09c0-3.012 2.623-4.467 5.22-4.467 2.546 0 5.142 1.456 5.142 4.468l-.002 3.61h-8.257v1.48zM369.923 87.436v2.128c-.96-.154-1.195-.258-2.053-.05-1.064.285-2.078 1.064-2.078 2.31v9.09h-2.076v-9.09c0-2.415 1.713-3.948 3.844-4.362.726-.183 1.584-.183 2.363-.026M372.442 97.304c.91 1.35 2.467 1.922 3.844 1.87 1.22-.026 2.52-.623 2.494-2 0-1.454-1.455-1.818-2.676-2.052h.026c-2.208-.39-4.727-1.065-4.727-3.947 0-2.83 2.676-3.895 4.883-3.895 1.402 0 2.935.52 4.05 1.61l-1.35 1.584c-.83-.857-1.765-1.17-2.7-1.17-1.168 0-2.83.365-2.83 1.87.025 1.378 1.87 1.74 3.037 1.95 2.103.388 4.312 1.323 4.338 4.05 0 2.675-2.234 3.843-4.544 3.896-2.104.052-4.104-.727-5.403-2.805l1.56-.96z" fill="#7A8387" mask="url(#b)"/><path d="M60.42.15h-.002C37.518.15 16.498 5.768 0 15.38h.025C-.05 34.47 5.59 55.477 17.04 75.305 28.484 95.13 43.854 110.52 60.42 120V.15z" fill="#11343C" mask="url(#b)"/><path d="M60.42.15h.002c22.9 0 43.92 5.618 60.418 15.23h-.024c.074 19.09-5.567 40.098-17.015 59.926C92.357 95.13 76.987 110.52 60.42 120V.15z" fill="#EDDD3D" mask="url(#b)"/><path d="M102.96 25.095c-7.128-4.285-15.45-7.476-24.543-9.305.2 5.99.37 12.118-.045 18.208 1.175.228 2.304.478 3.383.753h.14l.086.06c.107.026.212.053.316.08h.002c.004.264-.016.53-.04.798-.086 8.104-2.122 16.96-6.145 25.33-4.138 8.61-9.698 13.48-15.69 17.596-5.99-4.117-11.548-8.987-15.688-17.597-4.023-8.37-6.058-17.22-6.142-25.323-.03-.27-.044-.538-.043-.804h-.01l.316-.08.087-.06h.14c1.08-.274 2.21-.525 3.385-.753-.415-6.09-.246-12.217-.045-18.207-9.093 1.828-17.418 5.02-24.545 9.305h.016c-.05 13.88 3.92 29.15 11.98 43.563 8.063 14.416 18.887 25.6 30.554 32.494C72.096 94.26 82.92 83.075 90.98 68.662c8.06-14.414 12.036-29.69 11.982-43.567h-.002z" fill="#FFF" mask="url(#b)"/><path d="M60.42 78.613c-5.99-4.115-11.546-8.984-15.684-17.592-4.024-8.37-6.06-17.22-6.143-25.323-.028-.27-.044-.54-.043-.805h-.01l.317-.08c.03-.02.057-.04.086-.057h.14c1.08-.276 2.21-.528 3.385-.754-.415-6.09-.246-12.217-.045-18.207-9.093 1.83-17.418 5.02-24.545 9.306h.017c-.052 13.876 3.92 29.148 11.98 43.562 8.06 14.41 18.88 25.596 30.545 32.487V78.612z" fill="#EBEBEB" mask="url(#b)"/></g></svg>